<?xml version="1.0" encoding="utf-8" standalone="no"?>
<!DOCTYPE svg PUBLIC "-//W3C//DTD SVG 1.1//EN"
  "http://www.w3.org/Graphics/SVG/1.1/DTD/svg11.dtd">
<svg xmlns:xlink="http://www.w3.org/1999/xlink" width="432pt" height="432pt" viewBox="0 0 432 432" xmlns="http://www.w3.org/2000/svg" version="1.1">
 <metadata>
  <rdf:RDF xmlns:dc="http://purl.org/dc/elements/1.1/" xmlns:cc="http://creativecommons.org/ns#" xmlns:rdf="http://www.w3.org/1999/02/22-rdf-syntax-ns#">
   <cc:Work>
    <dc:type rdf:resource="http://purl.org/dc/dcmitype/StillImage"/>
    <dc:date>2023-09-25T15:39:54.610421</dc:date>
    <dc:format>image/svg+xml</dc:format>
    <dc:creator>
     <cc:Agent>
      <dc:title>Matplotlib v3.7.2, https://matplotlib.org/</dc:title>
     </cc:Agent>
    </dc:creator>
   </cc:Work>
  </rdf:RDF>
 </metadata>
 <defs>
  <style type="text/css">*{stroke-linejoin: round; stroke-linecap: butt}</style>
 </defs>
 <g id="figure_1">
  <g id="patch_1">
   <path d="M 0 432 
L 432 432 
L 432 0 
L 0 0 
z
" style="fill: #ffffff"/>
  </g>
  <g id="axes_1">
   <g id="patch_2">
    <path d="M 387.72 218.16 
C 387.72 196.319058 383.417811 174.690491 375.059644 154.512092 
C 366.701477 134.333692 354.449878 115.997879 339.006 100.554 
C 323.562121 85.110122 305.226308 72.858523 285.047908 64.500356 
C 264.869509 56.142189 243.240942 51.84 221.4 51.84 
C 199.559058 51.84 177.930491 56.142189 157.752092 64.500356 
C 137.573692 72.858523 119.237879 85.110122 103.794 100.554 
C 88.350122 115.997879 76.098523 134.333692 67.740356 154.512092 
C 59.382189 174.690491 55.08 196.319058 55.08 218.16 
C 55.08 240.000942 59.382189 261.629509 67.740356 281.807908 
C 76.098523 301.986308 88.350122 320.322121 103.794 335.766 
C 119.237879 351.209878 137.573692 363.461477 157.752092 371.819644 
C 177.930491 380.177811 199.559058 384.48 221.4 384.48 
C 243.240942 384.48 264.869509 380.177811 285.047908 371.819644 
C 305.226308 363.461477 323.562121 351.209878 339.006 335.766 
C 354.449878 320.322121 366.701477 301.986308 375.059644 281.807908 
C 383.417811 261.629509 387.72 240.000942 387.72 218.16 
M 221.4 218.16 
C 221.4 218.16 221.4 218.16 221.4 218.16 
C 221.4 218.16 221.4 218.16 221.4 218.16 
C 221.4 218.16 221.4 218.16 221.4 218.16 
C 221.4 218.16 221.4 218.16 221.4 218.16 
C 221.4 218.16 221.4 218.16 221.4 218.16 
C 221.4 218.16 221.4 218.16 221.4 218.16 
C 221.4 218.16 221.4 218.16 221.4 218.16 
C 221.4 218.16 221.4 218.16 221.4 218.16 
C 221.4 218.16 221.4 218.16 221.4 218.16 
C 221.4 218.16 221.4 218.16 221.4 218.16 
C 221.4 218.16 221.4 218.16 221.4 218.16 
C 221.4 218.16 221.4 218.16 221.4 218.16 
C 221.4 218.16 221.4 218.16 221.4 218.16 
C 221.4 218.16 221.4 218.16 221.4 218.16 
C 221.4 218.16 221.4 218.16 221.4 218.16 
C 221.4 218.16 221.4 218.16 221.4 218.16 
z
" style="fill: #ffffff"/>
   </g>
   <g id="matplotlib.axis_1">
    <g id="xtick_1">
     <g id="line2d_1">
      <path d="M 221.4 218.16 
L 387.72 218.16 
" clip-path="url(#p539a7206cc)" style="fill: none; stroke: #b0b0b0; stroke-width: 0.8; stroke-linecap: square"/>
     </g>
     <g id="text_1">
      <!-- 0° -->
      <g transform="translate(396.03875 220.919375) scale(0.1 -0.1)">
       <defs>
        <path id="DejaVuSans-30" d="M 2034 4250 
Q 1547 4250 1301 3770 
Q 1056 3291 1056 2328 
Q 1056 1369 1301 889 
Q 1547 409 2034 409 
Q 2525 409 2770 889 
Q 3016 1369 3016 2328 
Q 3016 3291 2770 3770 
Q 2525 4250 2034 4250 
z
M 2034 4750 
Q 2819 4750 3233 4129 
Q 3647 3509 3647 2328 
Q 3647 1150 3233 529 
Q 2819 -91 2034 -91 
Q 1250 -91 836 529 
Q 422 1150 422 2328 
Q 422 3509 836 4129 
Q 1250 4750 2034 4750 
z
" transform="scale(0.015625)"/>
        <path id="DejaVuSans-b0" d="M 1600 4347 
Q 1350 4347 1178 4173 
Q 1006 4000 1006 3750 
Q 1006 3503 1178 3333 
Q 1350 3163 1600 3163 
Q 1850 3163 2022 3333 
Q 2194 3503 2194 3750 
Q 2194 3997 2020 4172 
Q 1847 4347 1600 4347 
z
M 1600 4750 
Q 1800 4750 1984 4673 
Q 2169 4597 2303 4453 
Q 2447 4313 2519 4134 
Q 2591 3956 2591 3750 
Q 2591 3338 2302 3052 
Q 2013 2766 1594 2766 
Q 1172 2766 890 3047 
Q 609 3328 609 3750 
Q 609 4169 896 4459 
Q 1184 4750 1600 4750 
z
" transform="scale(0.015625)"/>
       </defs>
       <use xlink:href="#DejaVuSans-30"/>
       <use xlink:href="#DejaVuSans-b0" x="63.623047"/>
      </g>
     </g>
    </g>
    <g id="xtick_2">
     <g id="line2d_2">
      <path d="M 221.4 218.16 
L 339.006 100.554 
" clip-path="url(#p539a7206cc)" style="fill: none; stroke: #b0b0b0; stroke-width: 0.8; stroke-linecap: square"/>
     </g>
     <g id="text_2">
      <!-- 45° -->
      <g transform="translate(340.042995 93.41388) scale(0.1 -0.1)">
       <defs>
        <path id="DejaVuSans-34" d="M 2419 4116 
L 825 1625 
L 2419 1625 
L 2419 4116 
z
M 2253 4666 
L 3047 4666 
L 3047 1625 
L 3713 1625 
L 3713 1100 
L 3047 1100 
L 3047 0 
L 2419 0 
L 2419 1100 
L 313 1100 
L 313 1709 
L 2253 4666 
z
" transform="scale(0.015625)"/>
        <path id="DejaVuSans-35" d="M 691 4666 
L 3169 4666 
L 3169 4134 
L 1269 4134 
L 1269 2991 
Q 1406 3038 1543 3061 
Q 1681 3084 1819 3084 
Q 2600 3084 3056 2656 
Q 3513 2228 3513 1497 
Q 3513 744 3044 326 
Q 2575 -91 1722 -91 
Q 1428 -91 1123 -41 
Q 819 9 494 109 
L 494 744 
Q 775 591 1075 516 
Q 1375 441 1709 441 
Q 2250 441 2565 725 
Q 2881 1009 2881 1497 
Q 2881 1984 2565 2268 
Q 2250 2553 1709 2553 
Q 1456 2553 1204 2497 
Q 953 2441 691 2322 
L 691 4666 
z
" transform="scale(0.015625)"/>
       </defs>
       <use xlink:href="#DejaVuSans-34"/>
       <use xlink:href="#DejaVuSans-35" x="63.623047"/>
       <use xlink:href="#DejaVuSans-b0" x="127.246094"/>
      </g>
     </g>
    </g>
    <g id="xtick_3">
     <g id="line2d_3">
      <path d="M 221.4 218.16 
L 221.4 51.84 
" clip-path="url(#p539a7206cc)" style="fill: none; stroke: #b0b0b0; stroke-width: 0.8; stroke-linecap: square"/>
     </g>
     <g id="text_3">
      <!-- 90° -->
      <g transform="translate(212.5375 40.599375) scale(0.1 -0.1)">
       <defs>
        <path id="DejaVuSans-39" d="M 703 97 
L 703 672 
Q 941 559 1184 500 
Q 1428 441 1663 441 
Q 2288 441 2617 861 
Q 2947 1281 2994 2138 
Q 2813 1869 2534 1725 
Q 2256 1581 1919 1581 
Q 1219 1581 811 2004 
Q 403 2428 403 3163 
Q 403 3881 828 4315 
Q 1253 4750 1959 4750 
Q 2769 4750 3195 4129 
Q 3622 3509 3622 2328 
Q 3622 1225 3098 567 
Q 2575 -91 1691 -91 
Q 1453 -91 1209 -44 
Q 966 3 703 97 
z
M 1959 2075 
Q 2384 2075 2632 2365 
Q 2881 2656 2881 3163 
Q 2881 3666 2632 3958 
Q 2384 4250 1959 4250 
Q 1534 4250 1286 3958 
Q 1038 3666 1038 3163 
Q 1038 2656 1286 2365 
Q 1534 2075 1959 2075 
z
" transform="scale(0.015625)"/>
       </defs>
       <use xlink:href="#DejaVuSans-39"/>
       <use xlink:href="#DejaVuSans-30" x="63.623047"/>
       <use xlink:href="#DejaVuSans-b0" x="127.246094"/>
      </g>
     </g>
    </g>
    <g id="xtick_4">
     <g id="line2d_4">
      <path d="M 221.4 218.16 
L 103.794 100.554 
" clip-path="url(#p539a7206cc)" style="fill: none; stroke: #b0b0b0; stroke-width: 0.8; stroke-linecap: square"/>
     </g>
     <g id="text_4">
      <!-- 135° -->
      <g transform="translate(81.850755 93.41388) scale(0.1 -0.1)">
       <defs>
        <path id="DejaVuSans-31" d="M 794 531 
L 1825 531 
L 1825 4091 
L 703 3866 
L 703 4441 
L 1819 4666 
L 2450 4666 
L 2450 531 
L 3481 531 
L 3481 0 
L 794 0 
L 794 531 
z
" transform="scale(0.015625)"/>
        <path id="DejaVuSans-33" d="M 2597 2516 
Q 3050 2419 3304 2112 
Q 3559 1806 3559 1356 
Q 3559 666 3084 287 
Q 2609 -91 1734 -91 
Q 1441 -91 1130 -33 
Q 819 25 488 141 
L 488 750 
Q 750 597 1062 519 
Q 1375 441 1716 441 
Q 2309 441 2620 675 
Q 2931 909 2931 1356 
Q 2931 1769 2642 2001 
Q 2353 2234 1838 2234 
L 1294 2234 
L 1294 2753 
L 1863 2753 
Q 2328 2753 2575 2939 
Q 2822 3125 2822 3475 
Q 2822 3834 2567 4026 
Q 2313 4219 1838 4219 
Q 1578 4219 1281 4162 
Q 984 4106 628 3988 
L 628 4550 
Q 988 4650 1302 4700 
Q 1616 4750 1894 4750 
Q 2613 4750 3031 4423 
Q 3450 4097 3450 3541 
Q 3450 3153 3228 2886 
Q 3006 2619 2597 2516 
z
" transform="scale(0.015625)"/>
       </defs>
       <use xlink:href="#DejaVuSans-31"/>
       <use xlink:href="#DejaVuSans-33" x="63.623047"/>
       <use xlink:href="#DejaVuSans-35" x="127.246094"/>
       <use xlink:href="#DejaVuSans-b0" x="190.869141"/>
      </g>
     </g>
    </g>
    <g id="xtick_5">
     <g id="line2d_5">
      <path d="M 221.4 218.16 
L 55.08 218.16 
" clip-path="url(#p539a7206cc)" style="fill: none; stroke: #b0b0b0; stroke-width: 0.8; stroke-linecap: square"/>
     </g>
     <g id="text_5">
      <!-- 180° -->
      <g transform="translate(29.03625 220.919375) scale(0.1 -0.1)">
       <defs>
        <path id="DejaVuSans-38" d="M 2034 2216 
Q 1584 2216 1326 1975 
Q 1069 1734 1069 1313 
Q 1069 891 1326 650 
Q 1584 409 2034 409 
Q 2484 409 2743 651 
Q 3003 894 3003 1313 
Q 3003 1734 2745 1975 
Q 2488 2216 2034 2216 
z
M 1403 2484 
Q 997 2584 770 2862 
Q 544 3141 544 3541 
Q 544 4100 942 4425 
Q 1341 4750 2034 4750 
Q 2731 4750 3128 4425 
Q 3525 4100 3525 3541 
Q 3525 3141 3298 2862 
Q 3072 2584 2669 2484 
Q 3125 2378 3379 2068 
Q 3634 1759 3634 1313 
Q 3634 634 3220 271 
Q 2806 -91 2034 -91 
Q 1263 -91 848 271 
Q 434 634 434 1313 
Q 434 1759 690 2068 
Q 947 2378 1403 2484 
z
M 1172 3481 
Q 1172 3119 1398 2916 
Q 1625 2713 2034 2713 
Q 2441 2713 2670 2916 
Q 2900 3119 2900 3481 
Q 2900 3844 2670 4047 
Q 2441 4250 2034 4250 
Q 1625 4250 1398 4047 
Q 1172 3844 1172 3481 
z
" transform="scale(0.015625)"/>
       </defs>
       <use xlink:href="#DejaVuSans-31"/>
       <use xlink:href="#DejaVuSans-38" x="63.623047"/>
       <use xlink:href="#DejaVuSans-30" x="127.246094"/>
       <use xlink:href="#DejaVuSans-b0" x="190.869141"/>
      </g>
     </g>
    </g>
    <g id="xtick_6">
     <g id="line2d_6">
      <path d="M 221.4 218.16 
L 103.794 335.766 
" clip-path="url(#p539a7206cc)" style="fill: none; stroke: #b0b0b0; stroke-width: 0.8; stroke-linecap: square"/>
     </g>
     <g id="text_6">
      <!-- 225° -->
      <g transform="translate(81.850755 348.42487) scale(0.1 -0.1)">
       <defs>
        <path id="DejaVuSans-32" d="M 1228 531 
L 3431 531 
L 3431 0 
L 469 0 
L 469 531 
Q 828 903 1448 1529 
Q 2069 2156 2228 2338 
Q 2531 2678 2651 2914 
Q 2772 3150 2772 3378 
Q 2772 3750 2511 3984 
Q 2250 4219 1831 4219 
Q 1534 4219 1204 4116 
Q 875 4013 500 3803 
L 500 4441 
Q 881 4594 1212 4672 
Q 1544 4750 1819 4750 
Q 2544 4750 2975 4387 
Q 3406 4025 3406 3419 
Q 3406 3131 3298 2873 
Q 3191 2616 2906 2266 
Q 2828 2175 2409 1742 
Q 1991 1309 1228 531 
z
" transform="scale(0.015625)"/>
       </defs>
       <use xlink:href="#DejaVuSans-32"/>
       <use xlink:href="#DejaVuSans-32" x="63.623047"/>
       <use xlink:href="#DejaVuSans-35" x="127.246094"/>
       <use xlink:href="#DejaVuSans-b0" x="190.869141"/>
      </g>
     </g>
    </g>
    <g id="xtick_7">
     <g id="line2d_7">
      <path d="M 221.4 218.16 
L 221.4 384.48 
" clip-path="url(#p539a7206cc)" style="fill: none; stroke: #b0b0b0; stroke-width: 0.8; stroke-linecap: square"/>
     </g>
     <g id="text_7">
      <!-- 270° -->
      <g transform="translate(209.35625 401.239375) scale(0.1 -0.1)">
       <defs>
        <path id="DejaVuSans-37" d="M 525 4666 
L 3525 4666 
L 3525 4397 
L 1831 0 
L 1172 0 
L 2766 4134 
L 525 4134 
L 525 4666 
z
" transform="scale(0.015625)"/>
       </defs>
       <use xlink:href="#DejaVuSans-32"/>
       <use xlink:href="#DejaVuSans-37" x="63.623047"/>
       <use xlink:href="#DejaVuSans-30" x="127.246094"/>
       <use xlink:href="#DejaVuSans-b0" x="190.869141"/>
      </g>
     </g>
    </g>
    <g id="xtick_8">
     <g id="line2d_8">
      <path d="M 221.4 218.16 
L 339.006 335.766 
" clip-path="url(#p539a7206cc)" style="fill: none; stroke: #b0b0b0; stroke-width: 0.8; stroke-linecap: square"/>
     </g>
     <g id="text_8">
      <!-- 315° -->
      <g transform="translate(336.861745 348.42487) scale(0.1 -0.1)">
       <use xlink:href="#DejaVuSans-33"/>
       <use xlink:href="#DejaVuSans-31" x="63.623047"/>
       <use xlink:href="#DejaVuSans-35" x="127.246094"/>
       <use xlink:href="#DejaVuSans-b0" x="190.869141"/>
      </g>
     </g>
    </g>
   </g>
   <g id="matplotlib.axis_2">
    <g id="ytick_1">
     <g id="line2d_9">
      <path d="M 245.4 218.16 
C 245.4 215.008349 244.779193 211.887344 243.573109 208.975598 
C 242.367024 206.063852 240.599117 203.417991 238.370563 201.189437 
C 236.142009 198.960883 233.496148 197.192976 230.584402 195.986891 
C 227.672656 194.780807 224.551651 194.16 221.4 194.16 
C 218.248349 194.16 215.127344 194.780807 212.215598 195.986891 
C 209.303852 197.192976 206.657991 198.960883 204.429437 201.189437 
C 202.200883 203.417991 200.432976 206.063852 199.226891 208.975598 
C 198.020807 211.887344 197.4 215.008349 197.4 218.16 
C 197.4 221.311651 198.020807 224.432656 199.226891 227.344402 
C 200.432976 230.256148 202.200883 232.902009 204.429437 235.130563 
C 206.657991 237.359117 209.303852 239.127024 212.215598 240.333109 
C 215.127344 241.539193 218.248349 242.16 221.4 242.16 
C 224.551651 242.16 227.672656 241.539193 230.584402 240.333109 
C 233.496148 239.127024 236.142009 237.359117 238.370563 235.130563 
C 240.599117 232.902009 242.367024 230.256148 243.573109 227.344402 
C 244.779193 224.432656 245.4 221.311651 245.4 218.16 
" clip-path="url(#p539a7206cc)" style="fill: none; stroke: #b0b0b0; stroke-width: 0.8; stroke-linecap: square"/>
     </g>
     <g id="text_9">
      <!-- 10 -->
      <g transform="translate(243.573109 206.89591) scale(0.1 -0.1)">
       <use xlink:href="#DejaVuSans-31"/>
       <use xlink:href="#DejaVuSans-30" x="63.623047"/>
      </g>
     </g>
    </g>
    <g id="ytick_2">
     <g id="line2d_10">
      <path d="M 269.4 218.16 
C 269.4 211.856698 268.158387 205.614687 265.746218 199.791195 
C 263.334048 193.967703 259.798233 188.675982 255.341125 184.218875 
C 250.884018 179.761767 245.592297 176.225952 239.768805 173.813782 
C 233.945313 171.401613 227.703302 170.16 221.4 170.16 
C 215.096698 170.16 208.854687 171.401613 203.031195 173.813782 
C 197.207703 176.225952 191.915982 179.761767 187.458875 184.218875 
C 183.001767 188.675982 179.465952 193.967703 177.053782 199.791195 
C 174.641613 205.614687 173.4 211.856698 173.4 218.16 
C 173.4 224.463302 174.641613 230.705313 177.053782 236.528805 
C 179.465952 242.352297 183.001767 247.644018 187.458875 252.101125 
C 191.915982 256.558233 197.207703 260.094048 203.031195 262.506218 
C 208.854687 264.918387 215.096698 266.16 221.4 266.16 
C 227.703302 266.16 233.945313 264.918387 239.768805 262.506218 
C 245.592297 260.094048 250.884018 256.558233 255.341125 252.101125 
C 259.798233 247.644018 263.334048 242.352297 265.746218 236.528805 
C 268.158387 230.705313 269.4 224.463302 269.4 218.16 
" clip-path="url(#p539a7206cc)" style="fill: none; stroke: #b0b0b0; stroke-width: 0.8; stroke-linecap: square"/>
     </g>
     <g id="text_10">
      <!-- 20 -->
      <g transform="translate(265.746218 197.711508) scale(0.1 -0.1)">
       <use xlink:href="#DejaVuSans-32"/>
       <use xlink:href="#DejaVuSans-30" x="63.623047"/>
      </g>
     </g>
    </g>
    <g id="ytick_3">
     <g id="line2d_11">
      <path d="M 293.4 218.16 
C 293.4 208.705047 291.53758 199.342031 287.919326 190.606793 
C 284.301072 181.871555 278.99735 173.933973 272.311688 167.248312 
C 265.626027 160.56265 257.688445 155.258928 248.953207 151.640674 
C 240.217969 148.02242 230.854953 146.16 221.4 146.16 
C 211.945047 146.16 202.582031 148.02242 193.846793 151.640674 
C 185.111555 155.258928 177.173973 160.56265 170.488312 167.248312 
C 163.80265 173.933973 158.498928 181.871555 154.880674 190.606793 
C 151.26242 199.342031 149.4 208.705047 149.4 218.16 
C 149.4 227.614953 151.26242 236.977969 154.880674 245.713207 
C 158.498928 254.448445 163.80265 262.386027 170.488312 269.071688 
C 177.173973 275.75735 185.111555 281.061072 193.846793 284.679326 
C 202.582031 288.29758 211.945047 290.16 221.4 290.16 
C 230.854953 290.16 240.217969 288.29758 248.953207 284.679326 
C 257.688445 281.061072 265.626027 275.75735 272.311688 269.071688 
C 278.99735 262.386027 284.301072 254.448445 287.919326 245.713207 
C 291.53758 236.977969 293.4 227.614953 293.4 218.16 
" clip-path="url(#p539a7206cc)" style="fill: none; stroke: #b0b0b0; stroke-width: 0.8; stroke-linecap: square"/>
     </g>
     <g id="text_11">
      <!-- 30 -->
      <g transform="translate(287.919326 188.527105) scale(0.1 -0.1)">
       <use xlink:href="#DejaVuSans-33"/>
       <use xlink:href="#DejaVuSans-30" x="63.623047"/>
      </g>
     </g>
    </g>
    <g id="ytick_4">
     <g id="line2d_12">
      <path d="M 317.4 218.16 
C 317.4 205.553396 314.916774 193.069374 310.092435 181.42239 
C 305.268096 169.775407 298.196467 159.191965 289.282251 150.277749 
C 280.368035 141.363533 269.784593 134.291904 258.13761 129.467565 
C 246.490626 124.643226 234.006604 122.16 221.4 122.16 
C 208.793396 122.16 196.309374 124.643226 184.66239 129.467565 
C 173.015407 134.291904 162.431965 141.363533 153.517749 150.277749 
C 144.603533 159.191965 137.531904 169.775407 132.707565 181.42239 
C 127.883226 193.069374 125.4 205.553396 125.4 218.16 
C 125.4 230.766604 127.883226 243.250626 132.707565 254.89761 
C 137.531904 266.544593 144.603533 277.128035 153.517749 286.042251 
C 162.431965 294.956467 173.015407 302.028096 184.66239 306.852435 
C 196.309374 311.676774 208.793396 314.16 221.4 314.16 
C 234.006604 314.16 246.490626 311.676774 258.13761 306.852435 
C 269.784593 302.028096 280.368035 294.956467 289.282251 286.042251 
C 298.196467 277.128035 305.268096 266.544593 310.092435 254.89761 
C 314.916774 243.250626 317.4 230.766604 317.4 218.16 
" clip-path="url(#p539a7206cc)" style="fill: none; stroke: #b0b0b0; stroke-width: 0.8; stroke-linecap: square"/>
     </g>
     <g id="text_12">
      <!-- 40 -->
      <g transform="translate(310.092435 179.342703) scale(0.1 -0.1)">
       <use xlink:href="#DejaVuSans-34"/>
       <use xlink:href="#DejaVuSans-30" x="63.623047"/>
      </g>
     </g>
    </g>
    <g id="ytick_5">
     <g id="line2d_13">
      <path d="M 341.4 218.16 
C 341.4 202.401744 338.295967 186.796718 332.265544 172.237988 
C 326.235121 157.679258 317.395583 144.449956 306.252814 133.307186 
C 295.110044 122.164417 281.880742 113.324879 267.322012 107.294456 
C 252.763282 101.264033 237.158256 98.16 221.4 98.16 
C 205.641744 98.16 190.036718 101.264033 175.477988 107.294456 
C 160.919258 113.324879 147.689956 122.164417 136.547186 133.307186 
C 125.404417 144.449956 116.564879 157.679258 110.534456 172.237988 
C 104.504033 186.796718 101.4 202.401744 101.4 218.16 
C 101.4 233.918256 104.504033 249.523282 110.534456 264.082012 
C 116.564879 278.640742 125.404417 291.870044 136.547186 303.012814 
C 147.689956 314.155583 160.919258 322.995121 175.477988 329.025544 
C 190.036718 335.055967 205.641744 338.16 221.4 338.16 
C 237.158256 338.16 252.763282 335.055967 267.322012 329.025544 
C 281.880742 322.995121 295.110044 314.155583 306.252814 303.012814 
C 317.395583 291.870044 326.235121 278.640742 332.265544 264.082012 
C 338.295967 249.523282 341.4 233.918256 341.4 218.16 
" clip-path="url(#p539a7206cc)" style="fill: none; stroke: #b0b0b0; stroke-width: 0.8; stroke-linecap: square"/>
     </g>
     <g id="text_13">
      <!-- 50 -->
      <g transform="translate(332.265544 170.158301) scale(0.1 -0.1)">
       <use xlink:href="#DejaVuSans-35"/>
       <use xlink:href="#DejaVuSans-30" x="63.623047"/>
      </g>
     </g>
    </g>
    <g id="ytick_6">
     <g id="line2d_14">
      <path d="M 365.4 218.16 
C 365.4 199.250093 361.675161 180.524062 354.438653 163.053586 
C 347.202145 145.58311 336.5947 129.707947 323.223376 116.336624 
C 309.852053 102.9653 293.97689 92.357855 276.506414 85.121347 
C 259.035938 77.884839 240.309907 74.16 221.4 74.16 
C 202.490093 74.16 183.764062 77.884839 166.293586 85.121347 
C 148.82311 92.357855 132.947947 102.9653 119.576624 116.336624 
C 106.2053 129.707947 95.597855 145.58311 88.361347 163.053586 
C 81.124839 180.524062 77.4 199.250093 77.4 218.16 
C 77.4 237.069907 81.124839 255.795938 88.361347 273.266414 
C 95.597855 290.73689 106.2053 306.612053 119.576624 319.983376 
C 132.947947 333.3547 148.82311 343.962145 166.293586 351.198653 
C 183.764062 358.435161 202.490093 362.16 221.4 362.16 
C 240.309907 362.16 259.035938 358.435161 276.506414 351.198653 
C 293.97689 343.962145 309.852053 333.3547 323.223376 319.983376 
C 336.5947 306.612053 347.202145 290.73689 354.438653 273.266414 
C 361.675161 255.795938 365.4 237.069907 365.4 218.16 
" clip-path="url(#p539a7206cc)" style="fill: none; stroke: #b0b0b0; stroke-width: 0.8; stroke-linecap: square"/>
     </g>
     <g id="text_14">
      <!-- 60 -->
      <g transform="translate(354.438653 160.973898) scale(0.1 -0.1)">
       <defs>
        <path id="DejaVuSans-36" d="M 2113 2584 
Q 1688 2584 1439 2293 
Q 1191 2003 1191 1497 
Q 1191 994 1439 701 
Q 1688 409 2113 409 
Q 2538 409 2786 701 
Q 3034 994 3034 1497 
Q 3034 2003 2786 2293 
Q 2538 2584 2113 2584 
z
M 3366 4563 
L 3366 3988 
Q 3128 4100 2886 4159 
Q 2644 4219 2406 4219 
Q 1781 4219 1451 3797 
Q 1122 3375 1075 2522 
Q 1259 2794 1537 2939 
Q 1816 3084 2150 3084 
Q 2853 3084 3261 2657 
Q 3669 2231 3669 1497 
Q 3669 778 3244 343 
Q 2819 -91 2113 -91 
Q 1303 -91 875 529 
Q 447 1150 447 2328 
Q 447 3434 972 4092 
Q 1497 4750 2381 4750 
Q 2619 4750 2861 4703 
Q 3103 4656 3366 4563 
z
" transform="scale(0.015625)"/>
       </defs>
       <use xlink:href="#DejaVuSans-36"/>
       <use xlink:href="#DejaVuSans-30" x="63.623047"/>
      </g>
     </g>
    </g>
   </g>
   <g id="line2d_15">
    <path d="M 221.4 218.16 
L 379.8 218.16 
" clip-path="url(#p539a7206cc)" style="fill: none; stroke: #000000; stroke-width: 1.5; stroke-linecap: square"/>
   </g>
   <g id="line2d_16">
    <path d="M 221.4 218.16 
L 207 164.418468 
" clip-path="url(#p539a7206cc)" style="fill: none; stroke: #ff0000; stroke-width: 1.5; stroke-linecap: square"/>
   </g>
   <g id="line2d_17">
    <path d="M 221.4 218.16 
L 207 193.218468 
" clip-path="url(#p539a7206cc)" style="fill: none; stroke: #008000; stroke-width: 1.5; stroke-linecap: square"/>
   </g>
   <g id="line2d_18">
    <path d="M 221.4 218.16 
L 207 203.76 
" clip-path="url(#p539a7206cc)" style="fill: none; stroke: #0000ff; stroke-width: 1.5; stroke-linecap: square"/>
   </g>
   <g id="line2d_19">
    <path d="M 221.4 218.16 
L 207 209.846156 
" clip-path="url(#p539a7206cc)" style="fill: none; stroke: #bf00bf; stroke-width: 1.5; stroke-linecap: square"/>
   </g>
   <g id="line2d_20">
    <path d="M 221.4 218.16 
L 207 214.301532 
" clip-path="url(#p539a7206cc)" style="fill: none; stroke: #00bfbf; stroke-width: 1.5; stroke-linecap: square"/>
   </g>
   <g id="patch_3">
    <path d="M 387.72 218.16 
C 387.72 196.319058 383.417811 174.690491 375.059644 154.512092 
C 366.701477 134.333692 354.449878 115.997879 339.006 100.554 
C 323.562121 85.110122 305.226308 72.858523 285.047908 64.500356 
C 264.869509 56.142189 243.240942 51.84 221.4 51.84 
C 199.559058 51.84 177.930491 56.142189 157.752092 64.500356 
C 137.573692 72.858523 119.237879 85.110122 103.794 100.554 
C 88.350122 115.997879 76.098523 134.333692 67.740356 154.512092 
C 59.382189 174.690491 55.08 196.319058 55.08 218.16 
C 55.08 240.000942 59.382189 261.629509 67.740356 281.807908 
C 76.098523 301.986308 88.350122 320.322121 103.794 335.766 
C 119.237879 351.209878 137.573692 363.461477 157.752092 371.819644 
C 177.930491 380.177811 199.559058 384.48 221.4 384.48 
C 243.240942 384.48 264.869509 380.177811 285.047908 371.819644 
C 305.226308 363.461477 323.562121 351.209878 339.006 335.766 
C 354.449878 320.322121 366.701477 301.986308 375.059644 281.807908 
C 383.417811 261.629509 387.72 240.000942 387.72 218.16 
" style="fill: none; stroke: #000000; stroke-width: 0.8; stroke-linejoin: miter; stroke-linecap: square"/>
   </g>
   <g id="patch_4">
    <path d="M 367.8 213.16 
Q 373.8 215.66 379.8 218.16 
Q 373.8 220.66 367.8 223.16 
z
"/>
   </g>
   <g id="patch_5">
    <path d="M 205.276199 177.303674 
Q 206.1381 170.861071 207 164.418468 
Q 210.967729 169.566976 214.935458 174.715483 
z
" style="fill: #ff0000"/>
   </g>
   <g id="patch_6">
    <path d="M 208.669873 206.110773 
Q 207.834936 199.664621 207 193.218468 
Q 212.165064 197.164621 217.330127 201.110773 
z
" style="fill: #008000"/>
   </g>
   <g id="patch_7">
    <path d="M 211.949747 215.780815 
Q 209.474874 209.770408 207 203.76 
Q 213.010408 206.234874 219.020815 208.709747 
z
" style="fill: #0000ff"/>
   </g>
   <g id="patch_8">
    <path d="M 221.4 218.16 
Q 219.397852 217.004059 217.395703 215.848118 
L 214.895703 220.178245 
Q 210.947852 215.012201 207 209.846156 
Q 213.447852 210.682074 219.895703 211.517991 
L 217.395703 215.848118 
Q 219.397852 217.004059 221.4 218.16 
L 221.4 218.16 
z
" style="fill: #bf00bf"/>
   </g>
   <g id="patch_9">
    <path d="M 217.297015 222.236989 
Q 212.148507 218.26926 207 214.301532 
Q 213.442603 213.439631 219.885205 212.577731 
z
" style="fill: #00bfbf"/>
   </g>
   <g id="legend_1">
    <g id="patch_10">
     <path d="M 334.02 147.90875 
L 380.72 147.90875 
Q 382.72 147.90875 382.72 145.90875 
L 382.72 58.84 
Q 382.72 56.84 380.72 56.84 
L 334.02 56.84 
Q 332.02 56.84 332.02 58.84 
L 332.02 145.90875 
Q 332.02 147.90875 334.02 147.90875 
z
" style="fill: #ffffff; stroke: #cccccc; stroke-linejoin: miter"/>
    </g>
    <g id="line2d_21">
     <path d="M 336.02 64.938437 
L 346.02 64.938437 
L 356.02 64.938437 
" style="fill: none; stroke: #000000; stroke-width: 1.5; stroke-linecap: square"/>
    </g>
    <g id="text_15">
     <!-- $W_0$ -->
     <g transform="translate(364.02 68.438437) scale(0.1 -0.1)">
      <defs>
       <path id="DejaVuSans-Oblique-57" d="M 616 4666 
L 1228 4666 
L 1453 697 
L 3213 4666 
L 3916 4666 
L 4147 697 
L 5888 4666 
L 6528 4666 
L 4453 0 
L 3659 0 
L 3444 3891 
L 1697 0 
L 903 0 
L 616 4666 
z
" transform="scale(0.015625)"/>
      </defs>
      <use xlink:href="#DejaVuSans-Oblique-57" transform="translate(0 0.09375)"/>
      <use xlink:href="#DejaVuSans-30" transform="translate(98.876953 -16.3125) scale(0.7)"/>
     </g>
    </g>
    <g id="line2d_22">
     <path d="M 336.02 79.616562 
L 346.02 79.616562 
L 356.02 79.616562 
" style="fill: none; stroke: #ff0000; stroke-width: 1.5; stroke-linecap: square"/>
    </g>
    <g id="text_16">
     <!-- $W_1$ -->
     <g transform="translate(364.02 83.116562) scale(0.1 -0.1)">
      <use xlink:href="#DejaVuSans-Oblique-57" transform="translate(0 0.09375)"/>
      <use xlink:href="#DejaVuSans-31" transform="translate(98.876953 -16.3125) scale(0.7)"/>
     </g>
    </g>
    <g id="line2d_23">
     <path d="M 336.02 94.294687 
L 346.02 94.294687 
L 356.02 94.294687 
" style="fill: none; stroke: #008000; stroke-width: 1.5; stroke-linecap: square"/>
    </g>
    <g id="text_17">
     <!-- $W_2$ -->
     <g transform="translate(364.02 97.794687) scale(0.1 -0.1)">
      <use xlink:href="#DejaVuSans-Oblique-57" transform="translate(0 0.09375)"/>
      <use xlink:href="#DejaVuSans-32" transform="translate(98.876953 -16.3125) scale(0.7)"/>
     </g>
    </g>
    <g id="line2d_24">
     <path d="M 336.02 108.972812 
L 346.02 108.972812 
L 356.02 108.972812 
" style="fill: none; stroke: #0000ff; stroke-width: 1.5; stroke-linecap: square"/>
    </g>
    <g id="text_18">
     <!-- $W_3$ -->
     <g transform="translate(364.02 112.472812) scale(0.1 -0.1)">
      <use xlink:href="#DejaVuSans-Oblique-57" transform="translate(0 0.09375)"/>
      <use xlink:href="#DejaVuSans-33" transform="translate(98.876953 -16.3125) scale(0.7)"/>
     </g>
    </g>
    <g id="line2d_25">
     <path d="M 336.02 123.650937 
L 346.02 123.650937 
L 356.02 123.650937 
" style="fill: none; stroke: #bf00bf; stroke-width: 1.5; stroke-linecap: square"/>
    </g>
    <g id="text_19">
     <!-- $W_4$ -->
     <g transform="translate(364.02 127.150937) scale(0.1 -0.1)">
      <use xlink:href="#DejaVuSans-Oblique-57" transform="translate(0 0.09375)"/>
      <use xlink:href="#DejaVuSans-34" transform="translate(98.876953 -16.3125) scale(0.7)"/>
     </g>
    </g>
    <g id="line2d_26">
     <path d="M 336.02 138.329062 
L 346.02 138.329062 
L 356.02 138.329062 
" style="fill: none; stroke: #00bfbf; stroke-width: 1.5; stroke-linecap: square"/>
    </g>
    <g id="text_20">
     <!-- $W_5$ -->
     <g transform="translate(364.02 141.829062) scale(0.1 -0.1)">
      <use xlink:href="#DejaVuSans-Oblique-57" transform="translate(0 0.09375)"/>
      <use xlink:href="#DejaVuSans-35" transform="translate(98.876953 -16.3125) scale(0.7)"/>
     </g>
    </g>
   </g>
  </g>
 </g>
 <defs>
  <clipPath id="p539a7206cc">
   <path d="M 387.72 218.16 
C 387.72 196.319058 383.417811 174.690491 375.059644 154.512092 
C 366.701477 134.333692 354.449878 115.997879 339.006 100.554 
C 323.562121 85.110122 305.226308 72.858523 285.047908 64.500356 
C 264.869509 56.142189 243.240942 51.84 221.4 51.84 
C 199.559058 51.84 177.930491 56.142189 157.752092 64.500356 
C 137.573692 72.858523 119.237879 85.110122 103.794 100.554 
C 88.350122 115.997879 76.098523 134.333692 67.740356 154.512092 
C 59.382189 174.690491 55.08 196.319058 55.08 218.16 
C 55.08 240.000942 59.382189 261.629509 67.740356 281.807908 
C 76.098523 301.986308 88.350122 320.322121 103.794 335.766 
C 119.237879 351.209878 137.573692 363.461477 157.752092 371.819644 
C 177.930491 380.177811 199.559058 384.48 221.4 384.48 
C 243.240942 384.48 264.869509 380.177811 285.047908 371.819644 
C 305.226308 363.461477 323.562121 351.209878 339.006 335.766 
C 354.449878 320.322121 366.701477 301.986308 375.059644 281.807908 
C 383.417811 261.629509 387.72 240.000942 387.72 218.16 
M 221.4 218.16 
C 221.4 218.16 221.4 218.16 221.4 218.16 
C 221.4 218.16 221.4 218.16 221.4 218.16 
C 221.4 218.16 221.4 218.16 221.4 218.16 
C 221.4 218.16 221.4 218.16 221.4 218.16 
C 221.4 218.16 221.4 218.16 221.4 218.16 
C 221.4 218.16 221.4 218.16 221.4 218.16 
C 221.4 218.16 221.4 218.16 221.4 218.16 
C 221.4 218.16 221.4 218.16 221.4 218.16 
C 221.4 218.16 221.4 218.16 221.4 218.16 
C 221.4 218.16 221.4 218.16 221.4 218.16 
C 221.4 218.16 221.4 218.16 221.4 218.16 
C 221.4 218.16 221.4 218.16 221.4 218.16 
C 221.4 218.16 221.4 218.16 221.4 218.16 
C 221.4 218.16 221.4 218.16 221.4 218.16 
C 221.4 218.16 221.4 218.16 221.4 218.16 
C 221.4 218.16 221.4 218.16 221.4 218.16 
z
"/>
  </clipPath>
 </defs>
</svg>
