<?xml version="1.0" encoding="utf-8" standalone="no"?>
<!DOCTYPE svg PUBLIC "-//W3C//DTD SVG 1.1//EN"
  "http://www.w3.org/Graphics/SVG/1.1/DTD/svg11.dtd">
<svg xmlns:xlink="http://www.w3.org/1999/xlink" width="432pt" height="432pt" viewBox="0 0 432 432" xmlns="http://www.w3.org/2000/svg" version="1.1">
 <metadata>
  <rdf:RDF xmlns:dc="http://purl.org/dc/elements/1.1/" xmlns:cc="http://creativecommons.org/ns#" xmlns:rdf="http://www.w3.org/1999/02/22-rdf-syntax-ns#">
   <cc:Work>
    <dc:type rdf:resource="http://purl.org/dc/dcmitype/StillImage"/>
    <dc:date>2023-10-11T10:20:09.769555</dc:date>
    <dc:format>image/svg+xml</dc:format>
    <dc:creator>
     <cc:Agent>
      <dc:title>Matplotlib v3.7.2, https://matplotlib.org/</dc:title>
     </cc:Agent>
    </dc:creator>
   </cc:Work>
  </rdf:RDF>
 </metadata>
 <defs>
  <style type="text/css">*{stroke-linejoin: round; stroke-linecap: butt}</style>
 </defs>
 <g id="figure_1">
  <g id="patch_1">
   <path d="M 0 432 
L 432 432 
L 432 0 
L 0 0 
z
" style="fill: #ffffff"/>
  </g>
  <g id="axes_1">
   <g id="patch_2">
    <path d="M 387.72 218.16 
C 387.72 196.319058 383.417811 174.690491 375.059644 154.512092 
C 366.701477 134.333692 354.449878 115.997879 339.006 100.554 
C 323.562121 85.110122 305.226308 72.858523 285.047908 64.500356 
C 264.869509 56.142189 243.240942 51.84 221.4 51.84 
C 199.559058 51.84 177.930491 56.142189 157.752092 64.500356 
C 137.573692 72.858523 119.237879 85.110122 103.794 100.554 
C 88.350122 115.997879 76.098523 134.333692 67.740356 154.512092 
C 59.382189 174.690491 55.08 196.319058 55.08 218.16 
C 55.08 240.000942 59.382189 261.629509 67.740356 281.807908 
C 76.098523 301.986308 88.350122 320.322121 103.794 335.766 
C 119.237879 351.209878 137.573692 363.461477 157.752092 371.819644 
C 177.930491 380.177811 199.559058 384.48 221.4 384.48 
C 243.240942 384.48 264.869509 380.177811 285.047908 371.819644 
C 305.226308 363.461477 323.562121 351.209878 339.006 335.766 
C 354.449878 320.322121 366.701477 301.986308 375.059644 281.807908 
C 383.417811 261.629509 387.72 240.000942 387.72 218.16 
M 221.4 218.16 
C 221.4 218.16 221.4 218.16 221.4 218.16 
C 221.4 218.16 221.4 218.16 221.4 218.16 
C 221.4 218.16 221.4 218.16 221.4 218.16 
C 221.4 218.16 221.4 218.16 221.4 218.16 
C 221.4 218.16 221.4 218.16 221.4 218.16 
C 221.4 218.16 221.4 218.16 221.4 218.16 
C 221.4 218.16 221.4 218.16 221.4 218.16 
C 221.4 218.16 221.4 218.16 221.4 218.16 
C 221.4 218.16 221.4 218.16 221.4 218.16 
C 221.4 218.16 221.4 218.16 221.4 218.16 
C 221.4 218.16 221.4 218.16 221.4 218.16 
C 221.4 218.16 221.4 218.16 221.4 218.16 
C 221.4 218.16 221.4 218.16 221.4 218.16 
C 221.4 218.16 221.4 218.16 221.4 218.16 
C 221.4 218.16 221.4 218.16 221.4 218.16 
C 221.4 218.16 221.4 218.16 221.4 218.16 
z
" style="fill: #ffffff"/>
   </g>
   <g id="matplotlib.axis_1">
    <g id="xtick_1">
     <g id="line2d_1">
      <path d="M 221.4 218.16 
L 387.72 218.16 
" clip-path="url(#p3e3611eac3)" style="fill: none; stroke: #b0b0b0; stroke-width: 0.8; stroke-linecap: square"/>
     </g>
     <g id="text_1">
      <!-- 0° -->
      <g transform="translate(396.03875 220.919375) scale(0.1 -0.1)">
       <defs>
        <path id="DejaVuSans-30" d="M 2034 4250 
Q 1547 4250 1301 3770 
Q 1056 3291 1056 2328 
Q 1056 1369 1301 889 
Q 1547 409 2034 409 
Q 2525 409 2770 889 
Q 3016 1369 3016 2328 
Q 3016 3291 2770 3770 
Q 2525 4250 2034 4250 
z
M 2034 4750 
Q 2819 4750 3233 4129 
Q 3647 3509 3647 2328 
Q 3647 1150 3233 529 
Q 2819 -91 2034 -91 
Q 1250 -91 836 529 
Q 422 1150 422 2328 
Q 422 3509 836 4129 
Q 1250 4750 2034 4750 
z
" transform="scale(0.015625)"/>
        <path id="DejaVuSans-b0" d="M 1600 4347 
Q 1350 4347 1178 4173 
Q 1006 4000 1006 3750 
Q 1006 3503 1178 3333 
Q 1350 3163 1600 3163 
Q 1850 3163 2022 3333 
Q 2194 3503 2194 3750 
Q 2194 3997 2020 4172 
Q 1847 4347 1600 4347 
z
M 1600 4750 
Q 1800 4750 1984 4673 
Q 2169 4597 2303 4453 
Q 2447 4313 2519 4134 
Q 2591 3956 2591 3750 
Q 2591 3338 2302 3052 
Q 2013 2766 1594 2766 
Q 1172 2766 890 3047 
Q 609 3328 609 3750 
Q 609 4169 896 4459 
Q 1184 4750 1600 4750 
z
" transform="scale(0.015625)"/>
       </defs>
       <use xlink:href="#DejaVuSans-30"/>
       <use xlink:href="#DejaVuSans-b0" x="63.623047"/>
      </g>
     </g>
    </g>
    <g id="xtick_2">
     <g id="line2d_2">
      <path d="M 221.4 218.16 
L 339.006 100.554 
" clip-path="url(#p3e3611eac3)" style="fill: none; stroke: #b0b0b0; stroke-width: 0.8; stroke-linecap: square"/>
     </g>
     <g id="text_2">
      <!-- 45° -->
      <g transform="translate(340.042995 93.41388) scale(0.1 -0.1)">
       <defs>
        <path id="DejaVuSans-34" d="M 2419 4116 
L 825 1625 
L 2419 1625 
L 2419 4116 
z
M 2253 4666 
L 3047 4666 
L 3047 1625 
L 3713 1625 
L 3713 1100 
L 3047 1100 
L 3047 0 
L 2419 0 
L 2419 1100 
L 313 1100 
L 313 1709 
L 2253 4666 
z
" transform="scale(0.015625)"/>
        <path id="DejaVuSans-35" d="M 691 4666 
L 3169 4666 
L 3169 4134 
L 1269 4134 
L 1269 2991 
Q 1406 3038 1543 3061 
Q 1681 3084 1819 3084 
Q 2600 3084 3056 2656 
Q 3513 2228 3513 1497 
Q 3513 744 3044 326 
Q 2575 -91 1722 -91 
Q 1428 -91 1123 -41 
Q 819 9 494 109 
L 494 744 
Q 775 591 1075 516 
Q 1375 441 1709 441 
Q 2250 441 2565 725 
Q 2881 1009 2881 1497 
Q 2881 1984 2565 2268 
Q 2250 2553 1709 2553 
Q 1456 2553 1204 2497 
Q 953 2441 691 2322 
L 691 4666 
z
" transform="scale(0.015625)"/>
       </defs>
       <use xlink:href="#DejaVuSans-34"/>
       <use xlink:href="#DejaVuSans-35" x="63.623047"/>
       <use xlink:href="#DejaVuSans-b0" x="127.246094"/>
      </g>
     </g>
    </g>
    <g id="xtick_3">
     <g id="line2d_3">
      <path d="M 221.4 218.16 
L 221.4 51.84 
" clip-path="url(#p3e3611eac3)" style="fill: none; stroke: #b0b0b0; stroke-width: 0.8; stroke-linecap: square"/>
     </g>
     <g id="text_3">
      <!-- 90° -->
      <g transform="translate(212.5375 40.599375) scale(0.1 -0.1)">
       <defs>
        <path id="DejaVuSans-39" d="M 703 97 
L 703 672 
Q 941 559 1184 500 
Q 1428 441 1663 441 
Q 2288 441 2617 861 
Q 2947 1281 2994 2138 
Q 2813 1869 2534 1725 
Q 2256 1581 1919 1581 
Q 1219 1581 811 2004 
Q 403 2428 403 3163 
Q 403 3881 828 4315 
Q 1253 4750 1959 4750 
Q 2769 4750 3195 4129 
Q 3622 3509 3622 2328 
Q 3622 1225 3098 567 
Q 2575 -91 1691 -91 
Q 1453 -91 1209 -44 
Q 966 3 703 97 
z
M 1959 2075 
Q 2384 2075 2632 2365 
Q 2881 2656 2881 3163 
Q 2881 3666 2632 3958 
Q 2384 4250 1959 4250 
Q 1534 4250 1286 3958 
Q 1038 3666 1038 3163 
Q 1038 2656 1286 2365 
Q 1534 2075 1959 2075 
z
" transform="scale(0.015625)"/>
       </defs>
       <use xlink:href="#DejaVuSans-39"/>
       <use xlink:href="#DejaVuSans-30" x="63.623047"/>
       <use xlink:href="#DejaVuSans-b0" x="127.246094"/>
      </g>
     </g>
    </g>
    <g id="xtick_4">
     <g id="line2d_4">
      <path d="M 221.4 218.16 
L 103.794 100.554 
" clip-path="url(#p3e3611eac3)" style="fill: none; stroke: #b0b0b0; stroke-width: 0.8; stroke-linecap: square"/>
     </g>
     <g id="text_4">
      <!-- 135° -->
      <g transform="translate(81.850755 93.41388) scale(0.1 -0.1)">
       <defs>
        <path id="DejaVuSans-31" d="M 794 531 
L 1825 531 
L 1825 4091 
L 703 3866 
L 703 4441 
L 1819 4666 
L 2450 4666 
L 2450 531 
L 3481 531 
L 3481 0 
L 794 0 
L 794 531 
z
" transform="scale(0.015625)"/>
        <path id="DejaVuSans-33" d="M 2597 2516 
Q 3050 2419 3304 2112 
Q 3559 1806 3559 1356 
Q 3559 666 3084 287 
Q 2609 -91 1734 -91 
Q 1441 -91 1130 -33 
Q 819 25 488 141 
L 488 750 
Q 750 597 1062 519 
Q 1375 441 1716 441 
Q 2309 441 2620 675 
Q 2931 909 2931 1356 
Q 2931 1769 2642 2001 
Q 2353 2234 1838 2234 
L 1294 2234 
L 1294 2753 
L 1863 2753 
Q 2328 2753 2575 2939 
Q 2822 3125 2822 3475 
Q 2822 3834 2567 4026 
Q 2313 4219 1838 4219 
Q 1578 4219 1281 4162 
Q 984 4106 628 3988 
L 628 4550 
Q 988 4650 1302 4700 
Q 1616 4750 1894 4750 
Q 2613 4750 3031 4423 
Q 3450 4097 3450 3541 
Q 3450 3153 3228 2886 
Q 3006 2619 2597 2516 
z
" transform="scale(0.015625)"/>
       </defs>
       <use xlink:href="#DejaVuSans-31"/>
       <use xlink:href="#DejaVuSans-33" x="63.623047"/>
       <use xlink:href="#DejaVuSans-35" x="127.246094"/>
       <use xlink:href="#DejaVuSans-b0" x="190.869141"/>
      </g>
     </g>
    </g>
    <g id="xtick_5">
     <g id="line2d_5">
      <path d="M 221.4 218.16 
L 55.08 218.16 
" clip-path="url(#p3e3611eac3)" style="fill: none; stroke: #b0b0b0; stroke-width: 0.8; stroke-linecap: square"/>
     </g>
     <g id="text_5">
      <!-- 180° -->
      <g transform="translate(29.03625 220.919375) scale(0.1 -0.1)">
       <defs>
        <path id="DejaVuSans-38" d="M 2034 2216 
Q 1584 2216 1326 1975 
Q 1069 1734 1069 1313 
Q 1069 891 1326 650 
Q 1584 409 2034 409 
Q 2484 409 2743 651 
Q 3003 894 3003 1313 
Q 3003 1734 2745 1975 
Q 2488 2216 2034 2216 
z
M 1403 2484 
Q 997 2584 770 2862 
Q 544 3141 544 3541 
Q 544 4100 942 4425 
Q 1341 4750 2034 4750 
Q 2731 4750 3128 4425 
Q 3525 4100 3525 3541 
Q 3525 3141 3298 2862 
Q 3072 2584 2669 2484 
Q 3125 2378 3379 2068 
Q 3634 1759 3634 1313 
Q 3634 634 3220 271 
Q 2806 -91 2034 -91 
Q 1263 -91 848 271 
Q 434 634 434 1313 
Q 434 1759 690 2068 
Q 947 2378 1403 2484 
z
M 1172 3481 
Q 1172 3119 1398 2916 
Q 1625 2713 2034 2713 
Q 2441 2713 2670 2916 
Q 2900 3119 2900 3481 
Q 2900 3844 2670 4047 
Q 2441 4250 2034 4250 
Q 1625 4250 1398 4047 
Q 1172 3844 1172 3481 
z
" transform="scale(0.015625)"/>
       </defs>
       <use xlink:href="#DejaVuSans-31"/>
       <use xlink:href="#DejaVuSans-38" x="63.623047"/>
       <use xlink:href="#DejaVuSans-30" x="127.246094"/>
       <use xlink:href="#DejaVuSans-b0" x="190.869141"/>
      </g>
     </g>
    </g>
    <g id="xtick_6">
     <g id="line2d_6">
      <path d="M 221.4 218.16 
L 103.794 335.766 
" clip-path="url(#p3e3611eac3)" style="fill: none; stroke: #b0b0b0; stroke-width: 0.8; stroke-linecap: square"/>
     </g>
     <g id="text_6">
      <!-- 225° -->
      <g transform="translate(81.850755 348.42487) scale(0.1 -0.1)">
       <defs>
        <path id="DejaVuSans-32" d="M 1228 531 
L 3431 531 
L 3431 0 
L 469 0 
L 469 531 
Q 828 903 1448 1529 
Q 2069 2156 2228 2338 
Q 2531 2678 2651 2914 
Q 2772 3150 2772 3378 
Q 2772 3750 2511 3984 
Q 2250 4219 1831 4219 
Q 1534 4219 1204 4116 
Q 875 4013 500 3803 
L 500 4441 
Q 881 4594 1212 4672 
Q 1544 4750 1819 4750 
Q 2544 4750 2975 4387 
Q 3406 4025 3406 3419 
Q 3406 3131 3298 2873 
Q 3191 2616 2906 2266 
Q 2828 2175 2409 1742 
Q 1991 1309 1228 531 
z
" transform="scale(0.015625)"/>
       </defs>
       <use xlink:href="#DejaVuSans-32"/>
       <use xlink:href="#DejaVuSans-32" x="63.623047"/>
       <use xlink:href="#DejaVuSans-35" x="127.246094"/>
       <use xlink:href="#DejaVuSans-b0" x="190.869141"/>
      </g>
     </g>
    </g>
    <g id="xtick_7">
     <g id="line2d_7">
      <path d="M 221.4 218.16 
L 221.4 384.48 
" clip-path="url(#p3e3611eac3)" style="fill: none; stroke: #b0b0b0; stroke-width: 0.8; stroke-linecap: square"/>
     </g>
     <g id="text_7">
      <!-- 270° -->
      <g transform="translate(209.35625 401.239375) scale(0.1 -0.1)">
       <defs>
        <path id="DejaVuSans-37" d="M 525 4666 
L 3525 4666 
L 3525 4397 
L 1831 0 
L 1172 0 
L 2766 4134 
L 525 4134 
L 525 4666 
z
" transform="scale(0.015625)"/>
       </defs>
       <use xlink:href="#DejaVuSans-32"/>
       <use xlink:href="#DejaVuSans-37" x="63.623047"/>
       <use xlink:href="#DejaVuSans-30" x="127.246094"/>
       <use xlink:href="#DejaVuSans-b0" x="190.869141"/>
      </g>
     </g>
    </g>
    <g id="xtick_8">
     <g id="line2d_8">
      <path d="M 221.4 218.16 
L 339.006 335.766 
" clip-path="url(#p3e3611eac3)" style="fill: none; stroke: #b0b0b0; stroke-width: 0.8; stroke-linecap: square"/>
     </g>
     <g id="text_8">
      <!-- 315° -->
      <g transform="translate(336.861745 348.42487) scale(0.1 -0.1)">
       <use xlink:href="#DejaVuSans-33"/>
       <use xlink:href="#DejaVuSans-31" x="63.623047"/>
       <use xlink:href="#DejaVuSans-35" x="127.246094"/>
       <use xlink:href="#DejaVuSans-b0" x="190.869141"/>
      </g>
     </g>
    </g>
   </g>
   <g id="matplotlib.axis_2">
    <g id="ytick_1">
     <g id="line2d_9">
      <path d="M 255.564114 218.16 
C 255.564114 213.67361 254.680393 209.230844 252.963526 205.08596 
C 251.246658 200.941075 248.730034 197.17468 245.557677 194.002323 
C 242.38532 190.829966 238.618925 188.313342 234.47404 186.596474 
C 230.329156 184.879607 225.88639 183.995886 221.4 183.995886 
C 216.91361 183.995886 212.470844 184.879607 208.32596 186.596474 
C 204.181075 188.313342 200.41468 190.829966 197.242323 194.002323 
C 194.069966 197.17468 191.553342 200.941075 189.836474 205.08596 
C 188.119607 209.230844 187.235886 213.67361 187.235886 218.16 
C 187.235886 222.64639 188.119607 227.089156 189.836474 231.23404 
C 191.553342 235.378925 194.069966 239.14532 197.242323 242.317677 
C 200.41468 245.490034 204.181075 248.006658 208.32596 249.723526 
C 212.470844 251.440393 216.91361 252.324114 221.4 252.324114 
C 225.88639 252.324114 230.329156 251.440393 234.47404 249.723526 
C 238.618925 248.006658 242.38532 245.490034 245.557677 242.317677 
C 248.730034 239.14532 251.246658 235.378925 252.963526 231.23404 
C 254.680393 227.089156 255.564114 222.64639 255.564114 218.16 
" clip-path="url(#p3e3611eac3)" style="fill: none; stroke: #b0b0b0; stroke-width: 0.8; stroke-linecap: square"/>
     </g>
     <g id="text_9">
      <!-- 5 -->
      <g transform="translate(252.963526 203.006272) scale(0.1 -0.1)">
       <use xlink:href="#DejaVuSans-35"/>
      </g>
     </g>
    </g>
    <g id="ytick_2">
     <g id="line2d_10">
      <path d="M 289.728228 218.16 
C 289.728228 209.187219 287.960786 200.301688 284.527051 192.011919 
C 281.093317 183.722151 276.060067 176.189361 269.715353 169.844647 
C 263.370639 163.499933 255.837849 158.466683 247.548081 155.032949 
C 239.258312 151.599214 230.372781 149.831772 221.4 149.831772 
C 212.427219 149.831772 203.541688 151.599214 195.251919 155.032949 
C 186.962151 158.466683 179.429361 163.499933 173.084647 169.844647 
C 166.739933 176.189361 161.706683 183.722151 158.272949 192.011919 
C 154.839214 200.301688 153.071772 209.187219 153.071772 218.16 
C 153.071772 227.132781 154.839214 236.018312 158.272949 244.308081 
C 161.706683 252.597849 166.739933 260.130639 173.084647 266.475353 
C 179.429361 272.820067 186.962151 277.853317 195.251919 281.287051 
C 203.541688 284.720786 212.427219 286.488228 221.4 286.488228 
C 230.372781 286.488228 239.258312 284.720786 247.548081 281.287051 
C 255.837849 277.853317 263.370639 272.820067 269.715353 266.475353 
C 276.060067 260.130639 281.093317 252.597849 284.527051 244.308081 
C 287.960786 236.018312 289.728228 227.132781 289.728228 218.16 
" clip-path="url(#p3e3611eac3)" style="fill: none; stroke: #b0b0b0; stroke-width: 0.8; stroke-linecap: square"/>
     </g>
     <g id="text_10">
      <!-- 10 -->
      <g transform="translate(284.527051 189.932232) scale(0.1 -0.1)">
       <use xlink:href="#DejaVuSans-31"/>
       <use xlink:href="#DejaVuSans-30" x="63.623047"/>
      </g>
     </g>
    </g>
    <g id="ytick_3">
     <g id="line2d_11">
      <path d="M 323.892342 218.16 
C 323.892342 204.700829 321.241179 191.372531 316.090577 178.937879 
C 310.939975 166.503226 303.390101 155.204041 293.87303 145.68697 
C 284.355959 136.169899 273.056774 128.620025 260.622121 123.469423 
C 248.187469 118.318821 234.859171 115.667658 221.4 115.667658 
C 207.940829 115.667658 194.612531 118.318821 182.177879 123.469423 
C 169.743226 128.620025 158.444041 136.169899 148.92697 145.68697 
C 139.409899 155.204041 131.860025 166.503226 126.709423 178.937879 
C 121.558821 191.372531 118.907658 204.700829 118.907658 218.16 
C 118.907658 231.619171 121.558821 244.947469 126.709423 257.382121 
C 131.860025 269.816774 139.409899 281.115959 148.92697 290.63303 
C 158.444041 300.150101 169.743226 307.699975 182.177879 312.850577 
C 194.612531 318.001179 207.940829 320.652342 221.4 320.652342 
C 234.859171 320.652342 248.187469 318.001179 260.622121 312.850577 
C 273.056774 307.699975 284.355959 300.150101 293.87303 290.63303 
C 303.390101 281.115959 310.939975 269.816774 316.090577 257.382121 
C 321.241179 244.947469 323.892342 231.619171 323.892342 218.16 
" clip-path="url(#p3e3611eac3)" style="fill: none; stroke: #b0b0b0; stroke-width: 0.8; stroke-linecap: square"/>
     </g>
     <g id="text_11">
      <!-- 15 -->
      <g transform="translate(316.090577 176.858191) scale(0.1 -0.1)">
       <use xlink:href="#DejaVuSans-31"/>
       <use xlink:href="#DejaVuSans-35" x="63.623047"/>
      </g>
     </g>
    </g>
    <g id="ytick_4">
     <g id="line2d_12">
      <path d="M 358.056456 218.16 
C 358.056456 200.214439 354.521572 182.443375 347.654103 165.863838 
C 340.786633 149.284302 330.720135 134.218722 318.030707 121.529293 
C 305.341278 108.839865 290.275698 98.773367 273.696162 91.905897 
C 257.116625 85.038428 239.345561 81.503544 221.4 81.503544 
C 203.454439 81.503544 185.683375 85.038428 169.103838 91.905897 
C 152.524302 98.773367 137.458722 108.839865 124.769293 121.529293 
C 112.079865 134.218722 102.013367 149.284302 95.145897 165.863838 
C 88.278428 182.443375 84.743544 200.214439 84.743544 218.16 
C 84.743544 236.105561 88.278428 253.876625 95.145897 270.456162 
C 102.013367 287.035698 112.079865 302.101278 124.769293 314.790707 
C 137.458722 327.480135 152.524302 337.546633 169.103838 344.414103 
C 185.683375 351.281572 203.454439 354.816456 221.4 354.816456 
C 239.345561 354.816456 257.116625 351.281572 273.696162 344.414103 
C 290.275698 337.546633 305.341278 327.480135 318.030707 314.790707 
C 330.720135 302.101278 340.786633 287.035698 347.654103 270.456162 
C 354.521572 253.876625 358.056456 236.105561 358.056456 218.16 
" clip-path="url(#p3e3611eac3)" style="fill: none; stroke: #b0b0b0; stroke-width: 0.8; stroke-linecap: square"/>
     </g>
     <g id="text_12">
      <!-- 20 -->
      <g transform="translate(347.654103 163.784151) scale(0.1 -0.1)">
       <use xlink:href="#DejaVuSans-32"/>
       <use xlink:href="#DejaVuSans-30" x="63.623047"/>
      </g>
     </g>
    </g>
   </g>
   <g id="line2d_13">
    <path d="M 221.4 218.16 
L 180.403063 65.157349 
" clip-path="url(#p3e3611eac3)" style="fill: none; stroke: #ff0000; stroke-width: 1.5; stroke-linecap: square"/>
   </g>
   <g id="line2d_14">
    <path d="M 221.4 218.16 
L 180.403063 147.151223 
" clip-path="url(#p3e3611eac3)" style="fill: none; stroke: #008000; stroke-width: 1.5; stroke-linecap: square"/>
   </g>
   <g id="line2d_15">
    <path d="M 221.4 218.16 
L 180.403063 177.163063 
" clip-path="url(#p3e3611eac3)" style="fill: none; stroke: #0000ff; stroke-width: 1.5; stroke-linecap: square"/>
   </g>
   <g id="line2d_16">
    <path d="M 221.4 218.16 
L 180.403063 194.490408 
" clip-path="url(#p3e3611eac3)" style="fill: none; stroke: #bf00bf; stroke-width: 1.5; stroke-linecap: square"/>
   </g>
   <g id="line2d_17">
    <path d="M 221.4 218.16 
L 180.403063 207.174904 
" clip-path="url(#p3e3611eac3)" style="fill: none; stroke: #00bfbf; stroke-width: 1.5; stroke-linecap: square"/>
   </g>
   <g id="patch_3">
    <path d="M 387.72 218.16 
C 387.72 196.319058 383.417811 174.690491 375.059644 154.512092 
C 366.701477 134.333692 354.449878 115.997879 339.006 100.554 
C 323.562121 85.110122 305.226308 72.858523 285.047908 64.500356 
C 264.869509 56.142189 243.240942 51.84 221.4 51.84 
C 199.559058 51.84 177.930491 56.142189 157.752092 64.500356 
C 137.573692 72.858523 119.237879 85.110122 103.794 100.554 
C 88.350122 115.997879 76.098523 134.333692 67.740356 154.512092 
C 59.382189 174.690491 55.08 196.319058 55.08 218.16 
C 55.08 240.000942 59.382189 261.629509 67.740356 281.807908 
C 76.098523 301.986308 88.350122 320.322121 103.794 335.766 
C 119.237879 351.209878 137.573692 363.461477 157.752092 371.819644 
C 177.930491 380.177811 199.559058 384.48 221.4 384.48 
C 243.240942 384.48 264.869509 380.177811 285.047908 371.819644 
C 305.226308 363.461477 323.562121 351.209878 339.006 335.766 
C 354.449878 320.322121 366.701477 301.986308 375.059644 281.807908 
C 383.417811 261.629509 387.72 240.000942 387.72 218.16 
" style="fill: none; stroke: #000000; stroke-width: 0.8; stroke-linejoin: miter; stroke-linecap: square"/>
   </g>
   <g id="patch_4">
    <path d="M 178.679263 78.042554 
Q 179.541163 71.599952 180.403063 65.157349 
Q 184.370792 70.305856 188.338521 75.454364 
z
" style="fill: #ff0000"/>
   </g>
   <g id="patch_5">
    <path d="M 221.4 218.16 
Q 203.901109 187.851032 186.402218 157.542064 
L 182.072091 160.042064 
Q 181.237577 153.596643 180.403063 147.151223 
Q 185.567704 151.096643 190.732345 155.042064 
L 186.402218 157.542064 
Q 203.901109 187.851032 221.4 218.16 
L 221.4 218.16 
z
" style="fill: #008000"/>
   </g>
   <g id="patch_6">
    <path d="M 185.352811 189.183879 
Q 182.877937 183.173471 180.403063 177.163063 
Q 186.413471 179.637937 192.423879 182.112811 
z
" style="fill: #0000ff"/>
   </g>
   <g id="patch_7">
    <path d="M 188.295368 204.820535 
Q 184.349216 199.655471 180.403063 194.490408 
Q 186.849216 195.325344 193.295368 196.160281 
z
" style="fill: #bf00bf"/>
   </g>
   <g id="patch_8">
    <path d="M 221.4 218.16 
Q 206.698004 214.220612 191.996008 210.281224 
L 190.701913 215.110853 
Q 185.552488 211.142879 180.403063 207.174904 
Q 186.846583 206.313249 193.290103 205.451595 
L 191.996008 210.281224 
Q 206.698004 214.220612 221.4 218.16 
L 221.4 218.16 
z
" style="fill: #00bfbf"/>
   </g>
   <g id="legend_1">
    <g id="patch_9">
     <path d="M 334.02 133.230625 
L 380.72 133.230625 
Q 382.72 133.230625 382.72 131.230625 
L 382.72 58.84 
Q 382.72 56.84 380.72 56.84 
L 334.02 56.84 
Q 332.02 56.84 332.02 58.84 
L 332.02 131.230625 
Q 332.02 133.230625 334.02 133.230625 
z
" style="fill: #ffffff; stroke: #cccccc; stroke-linejoin: miter"/>
    </g>
    <g id="line2d_18">
     <path d="M 336.02 64.938437 
L 346.02 64.938437 
L 356.02 64.938437 
" style="fill: none; stroke: #ff0000; stroke-width: 1.5; stroke-linecap: square"/>
    </g>
    <g id="text_13">
     <!-- $W_1$ -->
     <g transform="translate(364.02 68.438437) scale(0.1 -0.1)">
      <defs>
       <path id="DejaVuSans-Oblique-57" d="M 616 4666 
L 1228 4666 
L 1453 697 
L 3213 4666 
L 3916 4666 
L 4147 697 
L 5888 4666 
L 6528 4666 
L 4453 0 
L 3659 0 
L 3444 3891 
L 1697 0 
L 903 0 
L 616 4666 
z
" transform="scale(0.015625)"/>
      </defs>
      <use xlink:href="#DejaVuSans-Oblique-57" transform="translate(0 0.09375)"/>
      <use xlink:href="#DejaVuSans-31" transform="translate(98.876953 -16.3125) scale(0.7)"/>
     </g>
    </g>
    <g id="line2d_19">
     <path d="M 336.02 79.616562 
L 346.02 79.616562 
L 356.02 79.616562 
" style="fill: none; stroke: #008000; stroke-width: 1.5; stroke-linecap: square"/>
    </g>
    <g id="text_14">
     <!-- $W_2$ -->
     <g transform="translate(364.02 83.116562) scale(0.1 -0.1)">
      <use xlink:href="#DejaVuSans-Oblique-57" transform="translate(0 0.09375)"/>
      <use xlink:href="#DejaVuSans-32" transform="translate(98.876953 -16.3125) scale(0.7)"/>
     </g>
    </g>
    <g id="line2d_20">
     <path d="M 336.02 94.294687 
L 346.02 94.294687 
L 356.02 94.294687 
" style="fill: none; stroke: #0000ff; stroke-width: 1.5; stroke-linecap: square"/>
    </g>
    <g id="text_15">
     <!-- $W_3$ -->
     <g transform="translate(364.02 97.794687) scale(0.1 -0.1)">
      <use xlink:href="#DejaVuSans-Oblique-57" transform="translate(0 0.09375)"/>
      <use xlink:href="#DejaVuSans-33" transform="translate(98.876953 -16.3125) scale(0.7)"/>
     </g>
    </g>
    <g id="line2d_21">
     <path d="M 336.02 108.972812 
L 346.02 108.972812 
L 356.02 108.972812 
" style="fill: none; stroke: #bf00bf; stroke-width: 1.5; stroke-linecap: square"/>
    </g>
    <g id="text_16">
     <!-- $W_4$ -->
     <g transform="translate(364.02 112.472812) scale(0.1 -0.1)">
      <use xlink:href="#DejaVuSans-Oblique-57" transform="translate(0 0.09375)"/>
      <use xlink:href="#DejaVuSans-34" transform="translate(98.876953 -16.3125) scale(0.7)"/>
     </g>
    </g>
    <g id="line2d_22">
     <path d="M 336.02 123.650937 
L 346.02 123.650937 
L 356.02 123.650937 
" style="fill: none; stroke: #00bfbf; stroke-width: 1.5; stroke-linecap: square"/>
    </g>
    <g id="text_17">
     <!-- $W_5$ -->
     <g transform="translate(364.02 127.150937) scale(0.1 -0.1)">
      <use xlink:href="#DejaVuSans-Oblique-57" transform="translate(0 0.09375)"/>
      <use xlink:href="#DejaVuSans-35" transform="translate(98.876953 -16.3125) scale(0.7)"/>
     </g>
    </g>
   </g>
  </g>
 </g>
 <defs>
  <clipPath id="p3e3611eac3">
   <path d="M 387.72 218.16 
C 387.72 196.319058 383.417811 174.690491 375.059644 154.512092 
C 366.701477 134.333692 354.449878 115.997879 339.006 100.554 
C 323.562121 85.110122 305.226308 72.858523 285.047908 64.500356 
C 264.869509 56.142189 243.240942 51.84 221.4 51.84 
C 199.559058 51.84 177.930491 56.142189 157.752092 64.500356 
C 137.573692 72.858523 119.237879 85.110122 103.794 100.554 
C 88.350122 115.997879 76.098523 134.333692 67.740356 154.512092 
C 59.382189 174.690491 55.08 196.319058 55.08 218.16 
C 55.08 240.000942 59.382189 261.629509 67.740356 281.807908 
C 76.098523 301.986308 88.350122 320.322121 103.794 335.766 
C 119.237879 351.209878 137.573692 363.461477 157.752092 371.819644 
C 177.930491 380.177811 199.559058 384.48 221.4 384.48 
C 243.240942 384.48 264.869509 380.177811 285.047908 371.819644 
C 305.226308 363.461477 323.562121 351.209878 339.006 335.766 
C 354.449878 320.322121 366.701477 301.986308 375.059644 281.807908 
C 383.417811 261.629509 387.72 240.000942 387.72 218.16 
M 221.4 218.16 
C 221.4 218.16 221.4 218.16 221.4 218.16 
C 221.4 218.16 221.4 218.16 221.4 218.16 
C 221.4 218.16 221.4 218.16 221.4 218.16 
C 221.4 218.16 221.4 218.16 221.4 218.16 
C 221.4 218.16 221.4 218.16 221.4 218.16 
C 221.4 218.16 221.4 218.16 221.4 218.16 
C 221.4 218.16 221.4 218.16 221.4 218.16 
C 221.4 218.16 221.4 218.16 221.4 218.16 
C 221.4 218.16 221.4 218.16 221.4 218.16 
C 221.4 218.16 221.4 218.16 221.4 218.16 
C 221.4 218.16 221.4 218.16 221.4 218.16 
C 221.4 218.16 221.4 218.16 221.4 218.16 
C 221.4 218.16 221.4 218.16 221.4 218.16 
C 221.4 218.16 221.4 218.16 221.4 218.16 
C 221.4 218.16 221.4 218.16 221.4 218.16 
C 221.4 218.16 221.4 218.16 221.4 218.16 
z
"/>
  </clipPath>
 </defs>
</svg>
